# xmcd
#
# Track frame offsets: 
#        150
#        17416
#        41369
#        56510
#        69631
#        95458
#        113372
#        135723
#        156451
#        176169
#        195365
#        221074
#        239023
#        255808
#        275651
#
# Disc length: 3916 seconds
#
# Revision: 0
# Processed by: cddbd v1.5.2PL0 Copyright (c) Steve Scherf et al.
# Submitted via: ExactAudioCopy v1.3
#
DISCID=ce0f4a0f
DTITLE=The Blue Chevys - Twice Fifteen
DYEAR=2018
DGENRE=Rock and Roll, Rhythm and Blues
TTITLE0=Sitting On A Stone
TTITLE1=Something's Going On
TTITLE2=Get It Rolling
TTITLE3=Snakes
TTITLE4=Follow The Moon
TTITLE5=Treat Her Right
TTITLE6=Turn It Back
TTITLE7=Hard Up
TTITLE8=Witchcraft
TTITLE9=No Worries
TTITLE10=Moving On
TTITLE11=Motel Birdcage
TTITLE12=Burning Heart
TTITLE13=Sit Down And Talk
TTITLE14=I Belong
EXTD=
EXTT0=
EXTT1=
EXTT2=
EXTT3=
EXTT4=
EXTT5=
EXTT6=
EXTT7=
EXTT8=
EXTT9=
EXTT10=
EXTT11=
EXTT12=
EXTT13=
EXTT14=
PLAYORDER=
